# xmcd
#
# Track frame offsets: 
#        150
#        28066
#        46689
#        84488
#        106122
#        140039
#        156231
#        188963
#        208779
#        245389
#
# Disc length: 3512 seconds
#
# Revision: 0
# Processed by: cddbd v1.5.2PL0 Copyright (c) Steve Scherf et al.
# Submitted via: ExactAudioCopy v1.0b4
#
DISCID=830db60a
DTITLE=Otis Grand and Joe Houston - The Return of Honk! (2016 Remix)
DYEAR=1994
DGENRE=Blues
TTITLE0=The Return of Honk
TTITLE1=Camilla's Hop
TTITLE2=Mama Don't
TTITLE3=Fruit Boots
TTITLE4=Big Legged Woman
TTITLE5=They Killed Crazy Horse
TTITLE6=Castle Rock
TTITLE7=Why Oh Why
TTITLE8=Blues for T-Bone
TTITLE9=Down, But Not Out
EXTD=
EXTT0=
EXTT1=
EXTT2=
EXTT3=
EXTT4=
EXTT5=
EXTT6=
EXTT7=
EXTT8=
EXTT9=
PLAYORDER=
